<?xml version="1.0" encoding="UTF-8"?>
<svg id="Capa_1" data-name="Capa 1" xmlns="http://www.w3.org/2000/svg" viewBox="0 0 346.99 800">
  <defs>
    <style>
      .cls-1 {
        fill: #fff;
        stroke-width: 0px;
      }
    </style>
  </defs>
  <path class="cls-1" d="M197.21,553.16l-10.24-3.31V167.57c0-8.27-7.55-14.96-16.87-14.96s-16.86,6.68-16.86,14.96v383.83l-9.38,3.93c-28.84,12.01-47.47,39.95-47.47,71.16,0,42.53,34.59,77.12,77.1,77.12s77.11-34.57,77.11-77.12c0-33.53-21.46-63-53.39-73.34Z"/>
  <path class="cls-1" d="M260.24,476.22V91.57C260.24,41.07,219.16,0,168.67,0s-91.57,41.07-91.57,91.57v390.64C29.4,513.98,0,567.66,0,626.5c0,95.68,77.83,173.5,173.49,173.5s173.5-77.83,173.5-173.5c0-63.08-33.74-119.78-86.75-150.28ZM173.49,751.81c-69.19,0-125.3-56.11-125.3-125.32,0-52.1,31.84-96.78,77.11-115.66V91.57c0-23.93,19.41-43.37,43.37-43.37s43.37,19.44,43.37,43.37v156.63h-13.26v19.29h13.26v49.4h-13.26v19.27h13.26v54.21h-13.26v19.27h13.26v97.66c50.32,16.29,86.74,63.45,86.74,119.19,0,69.2-56.09,125.32-125.29,125.32Z"/>
</svg>